Jump_normalized_Motion_pl03
version=1
nRows=23
nColumns=43
inDegrees=yes
endheader
time		pelvis_tilt		pelvis_list		pelvis_rotation		pelvis_tx		pelvis_ty		pelvis_tz		hip_flexion_r		hip_adduction_r		hip_rotation_r		knee_angle_r		ankle_angle_r		subtalar_angle_r		mtp_angle_r		hip_flexion_l		hip_adduction_l		hip_rotation_l		knee_angle_l		ankle_angle_l		subtalar_angle_l		mtp_angle_l		lumbar_extension		lumbar_bending		lumbar_rotation		neck_flexion		neck_lateral_bending		neck_rotation		arm_flex_r		arm_add_r		arm_rot_r		elbow_flex_r		pro_sup_r		wrist_flex_r		wrist_dev_r		hand_finger_flex_r		arm_flex_l		arm_add_l		arm_rot_l		elbow_flex_l		pro_sup_l		wrist_flex_l		wrist_dev_l		hand_finger_flex_l		
2.360000		-3.671640		-23.656715		84.631825		-0.005900		1.637626		1.681385		98.014386		-2.765845		11.294036		-132.096595		12.566182		9.123511		32.772724		94.061369		-9.876815		7.232063		-134.506677		29.787914		10.522139		5.260207		-49.750559		-7.190289		0.152168		40.500383		5.308154		-2.834731		64.184036		-23.978904		10.489282		71.028507		104.998916		-9.316032		-4.908029		-1.031428		71.154763		-18.397376		8.751112		67.822322		102.076409		-12.437862		-0.568696		15.014303		
2.362576		-3.678369		-23.676964		84.684299		-0.006114		1.637305		1.680146		97.937481		-2.827102		11.353911		-132.210699		12.753320		9.317376		32.790255		93.970560		-9.886470		7.185021		-134.612610		29.775649		10.574375		5.280663		-49.590650		-7.225084		0.158121		40.423148		5.385504		-2.901551		65.293564		-23.907621		11.016136		70.803708		104.860920		-9.111789		-4.802212		-1.391798		72.396067		-18.179974		9.380657		67.425784		102.267845		-12.433071		-0.595894		14.581231		
2.365152		-3.684771		-23.666342		84.731411		-0.006415		1.637032		1.678846		97.830378		-2.904751		11.426743		-132.325240		12.972188		9.526382		32.808193		93.840978		-9.869230		7.139698		-134.727704		29.766704		10.620293		5.305148		-49.456688		-7.249336		0.177235		40.347362		5.455375		-2.960360		66.382346		-23.803845		11.485086		70.586683		104.693545		-8.938398		-4.669946		-1.787411		73.599647		-17.938844		9.987681		67.052647		102.473759		-12.429284		-0.659333		14.116104		
2.367727		-3.679953		-23.648689		84.773122		-0.006806		1.636779		1.677511		97.715969		-2.987336		11.505396		-132.433296		13.194842		9.734606		32.825711		93.690728		-9.843092		7.091636		-134.834697		29.765591		10.658384		5.333047		-49.333855		-7.252293		0.196321		40.266746		5.519612		-3.015620		67.430830		-23.680442		11.923631		70.445916		104.512990		-8.779714		-4.531540		-2.189504		74.764597		-17.716177		10.541776		66.719563		102.687833		-12.412391		-0.749995		13.648774		
2.370303		-3.672425		-23.765507		84.761228		-0.007053		1.636211		1.676058		97.733575		-3.026238		11.551280		-132.553198		13.327729		9.789593		32.829194		93.673997		-9.872110		7.080599		-134.989622		29.781035		10.664147		5.342316		-49.093002		-7.274502		0.258620		40.209614		5.529609		-3.027147		68.230722		-23.462895		11.992945		70.584683		104.473761		-8.756031		-4.533515		-2.283083		75.584576		-17.455116		10.670663		66.866209		102.748247		-12.403940		-0.823915		13.538271		
2.372879		-3.672952		-23.797538		84.868635		-0.007222		1.635927		1.674761		97.676658		-3.155987		11.559870		-132.683726		13.603937		10.001801		32.841803		93.547061		-9.844634		7.029969		-135.038448		29.812412		10.709098		5.374611		-48.884932		-7.278501		0.220654		40.334834		5.548625		-3.083135		69.434766		-23.329939		12.640272		70.128472		104.346278		-8.523791		-4.222278		-2.592591		76.951145		-17.221631		11.401482		66.207185		103.067449		-12.290303		-0.799733		13.139562		
2.375455		-3.670997		-23.683062		85.012120		-0.007759		1.635894		1.673401		97.430235		-3.348009		11.654764		-132.803004		13.784350		10.217014		32.856718		93.264578		-9.687887		6.986907		-135.119951		29.860283		10.767176		5.419443		-48.887793		-7.217957		0.170881		40.113612		5.611655		-3.159691		70.581225		-23.324021		13.225147		69.979348		104.133225		-8.321960		-3.971342		-2.999998		78.224094		-17.077162		12.142650		65.840778		103.437698		-12.198982		-0.949495		12.648790		
2.378030		-3.659680		-23.794108		85.011701		-0.008041		1.635401		1.671860		97.416142		-3.383977		11.711081		-132.920954		13.919883		10.255503		32.860075		93.188947		-9.706042		6.968521		-135.238157		29.900539		10.776647		5.435751		-48.641487		-7.224041		0.223502		40.089916		5.612759		-3.173533		71.387441		-23.103363		13.319192		70.068757		104.062317		-8.289652		-3.941685		-3.115537		79.053370		-16.811856		12.283495		65.929346		103.525290		-12.192714		-1.037577		12.511509		
2.380606		-3.663440		-23.795703		85.131826		-0.008208		1.635210		1.670494		97.289835		-3.513971		11.753473		-133.046651		14.084592		10.356484		32.869583		92.984897		-9.654870		6.913929		-135.261268		30.033459		10.829306		5.488256		-48.485942		-7.221367		0.170235		40.208017		5.609659		-3.232034		72.555610		-22.970039		13.901333		69.674837		103.847814		-8.073333		-3.641133		-3.435854		80.354403		-16.561848		12.940429		65.393226		103.852677		-12.106148		-1.111781		12.111729		
2.383182		-3.661800		-23.722207		85.258109		-0.008714		1.635248		1.669030		97.024447		-3.655850		11.878590		-133.136995		14.105188		10.445263		32.879096		92.702261		-9.528597		6.875360		-135.313663		30.164329		10.902559		5.547574		-48.458707		-7.172221		0.126149		40.047514		5.665012		-3.308269		73.653895		-22.923574		14.397528		69.559293		103.574175		-7.882920		-3.429859		-3.795009		81.530494		-16.380869		13.590680		65.122913		104.174356		-12.043254		-1.306281		11.685752		
2.385758		-3.653869		-23.616806		85.245642		-0.009048		1.635327		1.667326		96.726413		-3.646064		12.018521		-133.220078		14.264908		10.440064		32.893463		92.322252		-9.557973		6.822222		-135.374624		30.265182		11.004329		5.653194		-48.464316		-7.209185		0.189719		39.970483		5.732991		-3.355945		74.562010		-22.785037		14.620492		69.601769		102.933325		-7.752023		-3.319914		-4.513194		82.531208		-16.112544		13.987843		64.970105		104.334121		-12.134062		-1.733975		10.955772		
2.388333		-3.676807		-23.246604		85.279173		-0.009135		1.636052		1.665701		96.128403		-3.657652		12.165475		-133.289234		14.383906		10.449190		32.925578		91.612819		-9.603869		6.714745		-135.351928		30.492842		11.222221		5.892474		-48.766590		-7.332876		0.199681		39.973992		5.864399		-3.470526		75.801746		-22.791160		15.251744		69.282441		101.529310		-7.380951		-2.962977		-6.108380		84.027871		-15.813803		14.954103		64.177677		104.663460		-12.242584		-2.519520		9.368258		
2.390909		-3.643769		-23.523874		85.341621		-0.009374		1.635520		1.664252		96.216308		-3.673255		12.202751		-133.366284		14.131203		10.535766		32.929656		91.730225		-9.630944		6.730207		-135.395569		30.583826		11.240043		5.936696		-48.318033		-7.334607		0.243276		40.051073		5.921246		-3.535896		76.678555		-22.571776		15.451510		69.115484		101.447382		-7.212058		-2.868465		-6.301280		84.984972		-15.485574		15.295299		64.043523		104.683861		-12.041906		-2.441624		9.241409		
2.393485		-3.601216		-23.716784		85.395012		-0.009719		1.635079		1.662685		96.229131		-3.681502		12.298523		-133.452053		14.031668		10.528647		32.932679		91.752400		-9.632860		6.753348		-135.473571		30.655868		11.282041		5.973047		-47.967880		-7.318239		0.294202		40.008246		6.001932		-3.591369		77.504773		-22.344294		15.565377		69.065958		101.368686		-7.091367		-2.817776		-6.452815		85.885713		-15.198609		15.586903		64.013281		104.713254		-11.923957		-2.426280		9.118555		
2.396061		-3.554068		-23.887102		85.451713		-0.009978		1.634731		1.661094		96.211052		-3.682780		12.372682		-133.537041		13.913094		10.533672		32.934660		91.736373		-9.657161		6.776708		-135.532934		30.728099		11.352308		6.004852		-47.638161		-7.312058		0.336372		40.008744		6.083447		-3.638346		78.346456		-22.059346		15.658137		68.929312		101.296509		-6.994223		-2.745350		-6.567655		86.842935		-14.905475		15.912809		63.892772		104.769683		-11.837966		-2.410431		9.000212		
2.398636		-3.507184		-24.002578		85.575917		-0.010026		1.634485		1.659645		96.124788		-3.725058		12.401105		-133.635594		13.626591		10.487363		32.938787		91.677657		-9.665789		6.831345		-135.574686		30.850584		11.522448		6.069096		-47.349891		-7.324522		0.306884		40.014012		6.243105		-3.725380		79.342358		-21.769126		15.905543		68.509296		101.140651		-6.778113		-2.568094		-6.790685		88.105895		-14.648739		16.593389		63.414506		104.895073		-11.666278		-2.360147		8.758879		
2.401212		-3.455283		-24.057740		85.666789		-0.010115		1.634351		1.658079		95.981814		-3.736356		12.455249		-133.730533		13.455875		10.407292		32.943670		91.546033		-9.690047		6.890906		-135.630029		30.935390		11.724873		6.137366		-47.153605		-7.343426		0.293945		39.924327		6.395827		-3.789101		80.258685		-21.501125		16.063319		68.279487		100.951130		-6.598172		-2.475228		-7.046112		89.271589		-14.440937		17.174152		63.121768		105.011326		-11.534716		-2.421717		8.481819		
2.403788		-3.394567		-23.960280		85.724703		-0.010223		1.634680		1.656363		95.637358		-3.712262		12.527185		-133.785072		13.333022		10.256313		32.955957		91.197321		-9.727262		6.970171		-135.653851		31.021249		12.109383		6.285654		-47.143254		-7.372638		0.294334		39.752649		6.614630		-3.844605		81.220691		-21.244930		16.259379		68.064675		100.536477		-6.312660		-2.437458		-7.630114		90.511422		-14.340077		17.916818		62.743105		105.175340		-11.331255		-2.709431		7.884084		
2.406364		-3.341460		-23.949706		85.755363		-0.010285		1.634773		1.654591		95.406682		-3.663791		12.583350		-133.861453		13.272639		10.198143		32.967153		90.943937		-9.808808		7.028551		-135.698259		31.086358		12.395166		6.416830		-47.021202		-7.402860		0.312937		39.730995		6.734482		-3.872369		82.116101		-20.950152		16.399135		67.856205		100.194130		-6.090693		-2.406715		-8.152451		91.627333		-14.160056		18.421158		62.431872		105.298722		-11.151192		-2.940809		7.368275		
2.408939		-3.304293		-24.130066		85.787139		-0.010400		1.634397		1.652853		95.418437		-3.637276		12.621501		-133.971106		13.223190		10.299867		32.971447		90.933558		-9.888306		7.052819		-135.779538		31.101308		12.465188		6.467432		-46.665110		-7.411055		0.339004		39.880238		6.702585		-3.883837		82.944964		-20.596717		16.480004		67.638779		100.116165		-6.012346		-2.334752		-8.342756		92.577644		-13.863922		18.640133		62.229505		105.391495		-10.994137		-2.940159		7.210595		
2.411515		-3.269074		-24.254819		85.859204		-0.010569		1.634207		1.651109		95.350323		-3.656705		12.671160		-134.067746		13.145100		10.376586		32.976774		90.854810		-9.907031		7.083362		-135.841192		31.094772		12.590264		6.532372		-46.377930		-7.394728		0.317417		39.903164		6.712998		-3.912306		83.842293		-20.254057		16.637014		67.380487		100.032120		-5.884874		-2.243123		-8.560043		93.621701		-13.657548		19.033490		61.960384		105.560715		-10.746416		-2.960709		7.035411		
2.414091		-3.229318		-24.403976		85.891689		-0.010907		1.634096		1.649157		95.280182		-3.649096		12.764864		-134.132556		13.161884		10.420048		32.979651		90.744668		-9.918395		7.093731		-135.880950		31.083128		12.664659		6.568672		-46.077538		-7.355924		0.359535		39.843546		6.743236		-3.927197		84.601080		-19.955550		16.676555		67.364222		99.984280		-5.828033		-2.234018		-8.681492		94.439673		-13.449656		19.218633		61.955992		105.653837		-10.627463		-3.015696		6.932771		
2.416667		-3.190097		-24.516863		85.974522		-0.011091		1.633898		1.647333		95.197023		-3.678460		12.818248		-134.231860		13.137709		10.517243		32.983004		90.632140		-9.931702		7.109478		-135.929767		31.079194		12.769931		6.624136		-45.782432		-7.331174		0.312343		39.895030		6.765463		-3.937532		85.503813		-19.554944		16.822283		67.009926		99.934666		-5.706069		-2.121086		-8.830936		95.473491		-13.220093		19.605835		61.623362		105.812806		-10.448716		-3.015125		6.791976		
